<svg width="572" height="61" viewBox="0 0 572 61" fill="none" xmlns="http://www.w3.org/2000/svg">
<path d="M26.655 16.8111H8.12491V21.1863C8.12491 24.532 7.86754 28.1351 6.8381 32.2529C6.06601 35.3412 4.77923 38.9443 2.72033 42.5473H0.404053V55.9301H6.58076V47.1798H24.3387V55.9301H30.5154V42.5473H26.655V16.8111ZM19.9636 42.5473H8.38228C9.66909 39.9737 10.9559 36.8853 11.728 34.0543C12.5001 31.2234 12.7574 27.6203 13.0148 24.532V21.701H19.9636V42.5473ZM50.5896 16.039C48.016 16.039 44.9276 16.8111 42.354 19.6421C42.354 18.6126 42.354 17.3258 41.8393 16.039L35.6626 17.0684C35.92 18.3553 36.1774 20.6715 36.1774 24.7893V60.3053L42.6114 58.7611V49.7534C42.6114 48.724 42.6114 46.9224 42.6114 45.6356C45.4424 47.9519 48.2734 48.2092 49.8175 48.2092C53.678 48.2092 56.2516 46.6651 57.7957 45.1209C60.3693 42.8047 62.1709 38.4295 62.1709 31.7381C62.1709 25.0467 60.112 20.9289 58.0531 18.87C56.5089 17.3258 54.1927 16.039 50.5896 16.039ZM52.3912 41.2605C51.3617 42.29 50.3323 42.5473 49.0454 42.5473C46.4718 42.5473 44.4129 41.2605 42.8687 39.7163V24.7893C44.1555 23.5025 46.4718 21.701 49.5602 21.701C52.6485 21.701 51.8764 21.9584 52.9059 22.9878C54.7074 24.7893 54.9648 28.1351 54.9648 31.9955C54.9648 35.8559 54.9648 38.6869 52.3912 41.2605ZM86.6202 16.8111H93.8264L82.5024 49.496C80.9583 54.1286 79.1568 56.1874 78.3847 56.9595C76.3258 59.0184 74.2669 59.7905 71.1785 60.3053L69.1197 55.9301C71.9506 55.158 73.4948 54.1286 74.2669 53.3565C75.039 52.5844 76.3258 50.7829 77.3552 47.1798H75.2963C74.2669 42.8047 73.2374 40.4884 72.7227 38.4295L65.5166 17.0684L72.208 16.039L77.87 34.5691C78.3847 36.1133 79.1568 39.2016 79.4141 41.5178C80.1862 38.6868 80.9583 35.5985 81.7304 33.2823L86.8776 16.8111H86.6202ZM116.217 33.2823C117.246 34.3117 118.276 36.1133 118.276 38.4295C118.276 40.7458 117.246 43.5768 115.445 45.1209C113.386 46.9225 110.298 48.2092 106.18 48.2092C102.062 48.2092 99.2309 47.1798 97.9441 46.4078C96.6573 45.6357 95.8853 44.8635 95.1132 44.3488L97.9441 39.9737C98.9736 40.7458 100.003 41.5178 101.033 42.0326C102.577 42.8047 104.121 43.062 105.408 43.062C106.695 43.062 108.753 42.5473 109.525 41.7752C110.298 41.0031 110.812 39.7163 110.812 38.4295C110.812 37.1427 110.298 35.8559 109.525 35.3411C108.239 34.0543 106.18 34.0543 104.893 34.0543H101.547V28.9071H105.15C106.18 28.9071 107.981 28.9071 109.011 27.6203C109.783 26.8482 110.04 26.0761 110.04 25.0467C110.04 24.0172 110.04 23.2451 109.011 22.4731C107.981 21.701 106.694 21.1863 105.15 21.1863C103.606 21.1863 101.805 21.701 101.29 21.9584C100.26 22.2157 99.231 22.9878 98.4589 23.5025L95.8853 19.3848C97.1721 18.6127 98.7163 17.5832 100.003 17.0684C102.319 16.2964 104.378 16.039 106.437 16.039C108.496 16.039 112.356 16.5538 114.93 18.87C115.959 19.8995 117.246 21.701 117.246 24.532C117.246 27.363 116.474 28.1351 115.187 29.4219C114.673 29.9366 113.643 30.7086 112.356 31.2233C113.901 31.4807 115.187 32.2528 116.217 33.2823ZM136.548 28.1351H132.173V16.039L125.482 17.3258V47.4372H137.063C140.666 47.4372 144.012 46.9224 146.071 44.6062C147.1 43.3194 148.387 41.2605 148.387 37.9148C148.387 34.5691 148.13 33.2822 145.813 31.2233C142.982 28.3924 138.865 28.1351 136.291 28.1351H136.548ZM140.409 41.2605C139.122 42.5473 137.321 42.5473 136.034 42.5473H132.173V32.7675H135.776C137.063 32.7675 138.865 32.7675 140.152 34.0543C141.181 35.0838 141.438 36.8853 141.438 37.6574C141.438 38.4295 141.438 39.9737 140.152 41.2605H140.409ZM154.821 19.3848C153.792 20.4142 152.505 22.2157 152.505 25.3041C152.505 28.3924 153.277 29.4218 154.306 30.4513C155.336 31.4807 156.88 32.5102 158.939 32.5102C157.909 32.7675 157.137 33.2823 156.365 34.0543C155.593 34.8264 155.078 35.5985 154.821 36.628L153.792 39.459C153.534 40.4884 153.277 41.2605 152.505 41.7752C152.247 41.7752 151.475 42.5473 150.189 42.8046H149.159L150.189 47.6946H152.505C153.792 47.4372 156.365 47.1798 158.167 45.6356C159.196 44.6062 159.711 43.062 159.968 41.7752L160.74 38.6869C160.74 37.9148 161.255 36.628 162.027 35.8559C163.057 34.8265 164.086 34.8265 165.116 34.8265H167.947V46.9224H174.638V16.2964H163.314C160.483 16.2964 156.88 16.5538 154.564 18.87L154.821 19.3848ZM168.461 21.701V30.7087H164.601C162.799 30.7087 161.513 30.1939 160.483 29.4219C159.454 28.3924 159.196 27.1056 159.196 26.0761C159.196 25.0467 159.196 23.7599 160.483 22.9878C161.77 21.9584 163.571 21.9584 164.344 21.9584H168.204L168.461 21.701ZM218.647 31.2233C219.934 30.7086 220.963 29.9366 221.735 29.1645C223.022 27.8777 223.537 26.3335 223.537 24.532C223.537 22.7305 223.279 20.9289 221.478 19.1274C219.162 16.8111 215.816 16.8111 213.5 16.8111H200.889V47.4372H214.529C219.419 47.4372 221.735 45.3783 222.25 44.8636C223.279 43.8341 224.824 42.0326 224.824 38.4295C224.824 34.8265 224.309 34.5691 222.765 33.0249C222.25 32.5102 220.963 31.4808 218.904 30.966L218.647 31.2233ZM207.323 21.1863H211.955C213.242 21.1863 214.786 21.1862 215.816 22.2157C216.845 22.9878 216.845 24.2746 216.845 25.3041C216.845 26.3335 216.845 27.363 215.816 28.1351C214.786 29.1645 212.985 29.4219 211.698 29.4219H207.323V21.4436V21.1863ZM216.588 41.7752C215.558 42.8046 213.757 43.062 212.213 43.062H207.323V33.797H212.213C213.5 33.797 215.044 33.797 216.073 34.8265C217.36 35.8559 217.617 37.6575 217.617 38.6869C217.617 39.7163 217.617 41.0031 216.331 41.7752H216.588ZM249.273 39.9737L252.361 44.0914C249.53 46.9224 246.699 48.2092 242.581 48.2092C234.346 48.2092 229.713 42.2899 229.713 32.5102C229.713 21.4436 236.405 16.039 243.096 16.039C249.788 16.039 248.758 16.8111 251.589 19.3848L248.243 23.7599C246.442 22.2157 244.898 21.4436 243.096 21.4436C241.295 21.4436 239.236 22.4731 238.206 24.532C237.177 26.3335 236.919 29.1645 236.919 33.0249C236.919 36.8853 237.692 39.9737 238.978 41.2605C240.008 42.29 241.295 43.062 243.096 43.062C244.898 43.062 247.214 42.0326 249.273 39.9737ZM269.604 16.039C265.744 16.039 262.656 17.3258 260.339 20.1568C257.766 23.2452 256.479 26.8482 256.479 31.9955C256.479 41.7752 261.884 47.9519 270.634 47.9519C279.384 47.9519 278.355 46.6651 281.7 43.8341L279.127 39.7163C276.811 41.7752 274.237 42.8046 271.406 42.8046C265.487 42.8046 263.942 38.4295 263.942 34.0543V33.5397H282.215V32.2529C282.215 25.0467 280.928 21.4436 278.355 18.87C275.781 16.5538 272.95 15.7816 269.862 15.7816L269.604 16.039ZM263.942 28.9071C263.942 24.0172 266.001 20.9289 269.862 20.9289C273.722 20.9289 275.266 24.0172 275.266 28.9071H263.942ZM307.179 21.701H295.341V47.4372H288.649V16.8111H307.694L306.922 21.701H307.179ZM333.173 16.8111H314.643V21.1863C314.643 24.532 314.385 28.1351 313.356 32.2529C312.584 35.3412 311.297 38.9443 309.496 42.5473H307.179V55.9301H313.356V47.1798H331.114V55.9301H337.291V42.5473H333.43V16.8111H333.173ZM326.739 42.5473H315.158C316.444 39.9737 317.731 36.8853 318.503 34.0543C319.275 31.2234 319.533 27.6203 319.79 24.532V21.701H326.739V42.5473ZM364.571 37.4001V28.6497C364.571 24.0172 364.571 22.4731 364.314 21.1863C363.027 17.8405 359.681 16.039 355.049 16.039C350.416 16.039 346.556 17.3258 342.18 20.1568L345.011 25.0467C345.011 25.0467 349.644 21.4436 354.019 21.4436C358.394 21.4436 358.137 23.2452 358.137 26.8482V28.3924H356.078C346.298 28.3924 340.894 31.9954 340.894 38.9442C340.894 45.893 343.982 47.9519 350.931 47.9519C357.88 47.9519 356.85 47.1798 359.424 44.3488C360.196 46.1503 361.74 47.6945 363.541 48.4666L366.887 44.3488C364.571 42.8046 364.056 41.5179 364.314 37.4001H364.571ZM357.88 40.231C356.593 42.2899 354.534 43.3194 352.475 43.3194C350.416 43.3194 348.357 41.5179 348.357 38.6869C348.357 35.8559 350.416 32.7675 357.107 32.7675C363.799 32.7675 358.394 32.7675 358.394 32.7675V39.9737L357.88 40.231ZM405.749 39.9737L408.837 44.0914C406.006 46.9224 403.175 48.2092 399.057 48.2092C390.822 48.2092 386.189 42.2899 386.189 32.5102C386.189 22.7304 392.881 16.039 399.572 16.039C406.264 16.039 405.234 16.8111 408.065 19.3848L404.719 23.7599C402.918 22.2157 401.374 21.4436 399.572 21.4436C397.771 21.4436 395.712 22.4731 394.682 24.532C393.653 26.3335 393.395 29.1645 393.395 33.0249C393.395 36.8853 394.168 39.9737 395.454 41.2605C396.484 42.29 397.771 43.062 399.572 43.062C401.374 43.062 403.69 42.0326 405.749 39.9737ZM424.022 16.8111H447.699L446.927 21.701H438.948V47.4372H432.257V21.701H424.022V16.8111ZM461.596 16.039C453.618 16.039 448.213 22.2157 448.213 31.9955C448.213 41.7752 453.361 47.9519 461.596 47.9519C469.832 47.9519 475.236 41.7752 475.236 31.9955C475.236 22.2157 470.347 15.7816 461.596 15.7816V16.039ZM461.854 43.3194C457.993 43.3194 455.677 40.7458 455.677 31.7381C455.677 22.7304 457.479 21.1863 461.596 21.1863C465.714 21.1863 467.773 23.7599 467.773 32.5102C467.773 41.2605 465.714 43.5768 461.596 43.5768L461.854 43.3194ZM496.083 16.8111C493.767 16.8111 491.708 17.3258 489.906 18.6126C488.619 19.6421 487.59 20.6716 486.818 21.9584H486.56V20.1568C486.56 18.3553 487.59 14.4949 491.965 12.436L499.943 9.0903C500.973 8.83294 502.002 8.3182 503.546 7.54611C504.833 7.03139 505.863 6.51663 506.892 5.74455L504.576 0.339935L502.259 1.62674L492.737 5.74455C490.678 6.77399 488.105 7.80346 486.046 9.86235C484.244 11.6639 483.215 13.4654 482.443 16.039C481.156 20.4142 480.898 25.0467 480.898 28.6497C480.898 34.0543 480.898 39.7163 484.502 43.8341C487.075 46.9225 490.421 48.2092 494.281 48.2092C498.142 48.2092 502.26 46.1504 504.318 43.8341C506.12 41.7752 507.921 38.1722 507.921 32.2529C507.921 26.3335 505.605 22.2157 504.576 20.6716C503.032 18.6127 500.201 16.5538 495.825 16.5538L496.083 16.8111ZM499.171 40.7458C497.884 42.8047 496.34 43.3194 494.539 43.3194C492.737 43.3194 491.193 42.8047 489.906 40.7458C488.877 38.9442 488.362 35.3411 488.362 32.5102C488.362 29.6792 488.619 26.3335 489.906 24.2746C491.193 22.2157 492.737 21.701 494.539 21.701C496.34 21.701 497.884 22.2157 499.171 24.2746C500.458 26.3335 500.715 30.1939 500.715 32.5102C500.715 34.8264 500.458 38.4295 499.171 40.7458ZM526.966 16.039C518.988 16.039 513.583 22.2157 513.583 31.9955C513.583 41.7752 518.731 47.9519 526.966 47.9519C535.202 47.9519 540.606 41.7752 540.606 31.9955C540.606 22.2157 535.717 15.7816 526.966 15.7816V16.039ZM527.224 43.3194C523.363 43.3194 521.047 40.7458 521.047 31.7381C521.047 22.7304 522.848 21.1863 526.966 21.1863C531.084 21.1863 533.143 23.7599 533.143 32.5102C533.143 41.2605 531.084 43.5768 526.966 43.5768L527.224 43.3194ZM549.099 7.03136L552.445 5.22987C552.702 5.74459 553.217 6.25926 553.732 6.77398C554.761 7.80343 556.305 8.83292 558.879 8.83292C561.453 8.83292 562.739 8.06079 563.769 6.77398C564.284 6.25926 564.798 5.48723 565.056 5.22987L568.401 7.03136C567.372 9.86234 565.57 11.4066 565.056 11.6639C562.997 13.2081 560.681 13.4654 558.879 13.4654C557.078 13.4654 554.761 13.2081 552.702 11.6639C552.188 11.4066 550.386 9.86234 549.357 7.03136H549.099ZM571.232 16.039V47.4372H564.541V33.5397C564.541 30.4513 564.541 28.3924 564.798 25.5614C564.026 27.8777 562.739 30.4513 561.71 32.2529L553.217 47.1798H546.268V17.0684L552.96 15.7816V31.7381C552.96 33.797 552.96 36.628 552.96 38.6869C553.989 35.5986 555.276 33.2823 556.305 31.4807L564.541 16.8111L571.49 15.5243L571.232 16.039Z" fill="#F69220"/>
</svg>
