<svg width="275" height="80" viewBox="0 0 275 80" fill="none" xmlns="http://www.w3.org/2000/svg">
<path d="M272.348 61.1613C259.98 47.2258 213.859 2.06452 140.941 0C139.137 0 137.333 0 135.787 0C63.1269 0 15.975 43.6129 3.09194 57.2903C1.03066 59.3548 0 62.1936 0 65.2903C0 68.3871 1.28831 70.9677 3.3496 73.0323C5.41089 75.0968 8.24516 76.129 11.0794 76.129C13.9137 76.129 11.0794 76.129 11.3371 76.129C14.429 76.129 17.0056 74.8387 19.0669 72.7742C30.404 60.9032 71.8874 22.4516 135.272 22.4516C198.657 22.4516 138.622 22.4516 140.168 22.4516C204.325 24.2581 244.778 64 255.6 76.3871C257.661 78.7097 260.753 80 263.845 80C266.937 80 269.256 78.9678 271.317 77.1613C275.955 73.0323 276.213 66.0645 272.09 61.4194L272.348 61.1613Z" fill="#80298D"/>
</svg>
