<svg width="153" height="49" viewBox="0 0 153 49" fill="none" xmlns="http://www.w3.org/2000/svg">
<path d="M77.3882 22.0628C107.183 22.8324 126.961 38.9948 134.153 45.9215C136.208 47.9738 139.033 49 141.858 49C144.684 49 147.766 47.7173 149.821 45.6649C154.187 41.3037 153.93 34.1204 149.821 30.0157C140.831 21.2932 115.659 0.769634 78.1588 0C77.3882 0 76.6177 0 75.8471 0C38.3466 0 12.9182 19.4974 3.67148 27.9633C-0.951872 32.0681 -1.20871 39.2513 2.90093 43.6126C7.01057 48.2304 14.2024 48.4869 18.5689 44.3822C26.0177 37.712 46.0522 22.3194 75.8471 22.3194C105.642 22.3194 76.8745 22.3194 77.6451 22.3194L77.3882 22.0628Z" fill="#F48120"/>
</svg>
