<svg width="382" height="116" viewBox="0 0 382 116" fill="none" xmlns="http://www.w3.org/2000/svg">
<path d="M201.712 0.257222C197.591 0.257222 193.728 0 189.607 0C117.492 0 46.6652 34.7228 2.36626 92.8514C0.563399 95.1663 -0.209261 98.2528 0.0482909 101.082C0.563395 103.911 1.85116 106.741 4.42668 108.541C6.74465 110.341 9.57772 111.113 12.6684 110.856C15.5014 110.341 18.3345 109.055 20.1374 106.483C60.3155 54.0133 124.446 22.3769 189.607 22.3769C193.212 22.3769 196.818 22.3769 200.424 22.6342C263.524 25.9778 325.337 59.929 361.909 111.37C363.97 114.2 367.318 116 370.923 116C374.529 116 375.559 115.228 377.362 113.942C382.256 110.341 383.543 103.397 379.938 98.51C338.987 40.8958 272.281 4.3725 201.454 0.514405L201.712 0.257222Z" fill="#F48120"/>
</svg>
