<svg width="1046" height="367" viewBox="0 0 1046 367" fill="none" xmlns="http://www.w3.org/2000/svg">
<path d="M427.057 225.449C425.77 223.39 422.939 222.875 419.851 223.647C416.763 224.42 411.873 226.221 406.211 228.28C400.806 230.339 394.372 232.655 388.71 234.199C371.982 239.089 356.025 240.119 345.731 240.119C335.436 240.119 344.701 240.119 344.444 240.119C344.444 240.119 330.547 232.398 325.142 224.934C318.193 215.412 318.451 213.868 315.362 207.434C312.789 201.514 309.958 197.911 303.266 198.169C296.575 198.169 291.942 200.227 286.538 201.257C279.332 202.544 273.412 203.316 263.375 204.345C249.992 205.632 243.558 205.375 234.808 206.404C223.227 207.691 211.903 207.948 204.954 207.434C200.321 206.919 195.432 206.147 185.909 200.485C176.644 195.08 171.24 189.161 162.489 179.381C156.055 172.432 151.937 168.829 147.562 169.087C143.187 169.087 140.099 169.859 136.238 176.036C131.091 184.528 126.459 192.507 121.311 197.397C112.818 205.632 105.612 210.522 102.009 212.066C82.9645 220.044 68.2949 214.64 53.1106 212.581C42.3014 211.294 17.3373 204.86 10.3885 203.573C-0.935399 201.257 -0.42067 209.493 0.351416 211.037C3.43976 216.699 10.3885 214.125 27.6318 217.985C43.0735 221.331 55.9415 226.736 69.5817 227.765C77.5599 228.28 80.1336 246.553 71.898 266.627C66.236 280.01 63.6624 312.695 58.0004 324.791C50.7943 339.718 56.7136 339.46 60.3167 339.975C63.9198 340.49 68.2949 341.519 71.898 343.321C74.4716 344.607 77.0452 346.152 81.4204 344.35C83.7366 343.321 86.0529 342.034 86.0529 339.975C86.0529 338.688 85.0234 338.431 83.7366 338.173C82.1925 337.916 76.0158 337.401 73.1848 335.085C72.4127 308.834 80.1336 292.106 87.0823 280.782C91.2001 280.267 96.6047 279.495 101.237 278.98C108.701 295.966 117.451 323.246 122.084 349.24C122.856 353.1 125.687 354.13 129.29 353.358C133.15 352.586 133.407 350.012 142.415 346.666C149.879 343.835 159.401 342.034 162.232 338.945C164.806 336.114 162.232 331.997 158.629 332.254C154.768 332.769 155.026 332.254 152.195 332.511C149.107 332.511 148.849 334.313 142.93 336.629C140.614 337.401 138.555 338.431 136.238 338.688C122.084 295.194 116.164 276.149 112.819 257.104C110.76 245.523 115.135 239.346 113.591 231.883C112.818 227.765 115.135 225.449 117.451 223.133C125.172 214.897 133.15 205.632 139.327 197.397C145.761 189.161 148.334 184.271 148.334 184.271C148.334 184.271 152.967 189.418 158.629 195.852C164.548 202.544 172.012 210.522 179.733 216.441C185.652 221.074 190.284 222.875 192.086 229.309L192.858 237.03C193.63 249.384 194.402 257.104 193.115 279.238C191.571 290.819 184.622 318.871 177.674 333.284C169.438 350.527 176.129 350.269 180.247 350.784C184.365 351.556 189.512 352.586 193.63 354.387C196.718 355.674 199.549 357.733 204.439 355.674C207.013 354.387 209.587 352.843 209.844 350.784C209.844 349.24 208.814 348.983 207.013 348.468C205.211 348.211 198.263 347.696 194.917 344.865C194.145 314.753 203.41 294.937 213.447 282.841C223.227 282.069 230.69 280.267 240.47 280.01C248.706 306.261 254.625 331.225 260.029 361.336C260.802 365.711 264.405 366.741 268.265 366.226C272.898 365.454 272.897 362.365 283.449 358.505C291.942 355.417 303.009 353.1 306.097 349.497C309.186 346.152 306.097 341.519 301.979 342.034C297.604 342.549 297.862 342.034 294.516 342.291C291.17 342.291 290.655 344.35 283.964 346.924C281.39 347.953 278.817 348.983 276.243 349.24C265.177 318.357 250.764 238.317 249.478 228.537L248.448 223.133C255.912 220.559 264.405 220.044 279.589 216.956C292.2 214.382 296.575 212.838 302.751 211.037C305.84 217.471 308.928 223.133 315.62 233.685C320.767 241.405 331.576 248.354 331.833 256.847C331.833 259.678 331.833 262.509 332.091 265.34C332.091 273.061 333.892 281.039 332.605 292.878C331.576 299.054 329.517 306.518 327.458 313.981C325.657 320.158 324.112 325.82 322.054 330.453C319.48 336.115 318.708 339.718 319.737 341.776C320.767 343.321 322.568 343.578 323.855 343.835H324.37C326.943 344.35 330.547 345.122 333.635 346.409H334.407C335.694 347.438 336.981 347.953 338.782 347.953C340.584 347.953 340.841 347.953 342.128 347.181C343.929 346.409 346.246 345.122 346.246 343.063C346.246 341.262 344.701 341.004 343.672 340.747C343.672 340.747 343.157 340.747 342.643 340.747C340.841 340.747 337.495 339.975 335.694 338.688C335.179 321.187 339.554 306.775 348.562 295.709C350.878 295.709 352.937 295.194 354.738 294.937C358.856 294.422 362.459 293.907 366.835 293.65C372.496 311.408 376.357 328.394 380.475 350.784C380.989 353.872 383.563 355.417 387.166 354.902C388.71 354.645 389.74 353.872 391.027 353.1C392.313 352.071 394.115 350.784 398.233 349.24C400.034 348.468 402.093 347.953 404.152 347.438C408.785 345.894 413.16 344.607 414.704 342.806C415.733 341.519 415.991 339.975 415.476 338.431C414.704 336.887 413.16 335.857 411.101 336.114C409.042 336.114 408.527 336.114 407.755 336.114C407.24 336.114 406.726 336.114 405.696 336.114C404.152 336.114 403.38 336.629 402.35 337.401C401.321 337.916 400.292 338.688 397.975 339.46H396.946C395.659 340.232 394.372 340.747 393.343 341.004C385.622 319.129 374.555 262.766 375.327 248.869C385.879 247.067 400.292 241.405 405.696 239.347C411.873 237.288 415.733 236.258 418.822 235.743C421.395 235.229 423.197 234.714 424.741 233.942C426.285 233.17 427.315 231.626 427.829 230.081C428.087 228.537 427.829 227.25 427.057 225.964" fill="#80298D"/>
<path d="M354.224 233.17C359.371 232.398 360.915 227.508 361.687 225.706C362.202 223.905 362.459 219.787 360.915 216.184C359.371 212.324 355.768 209.492 351.136 209.235C341.87 209.235 339.04 216.441 339.812 222.361C340.841 230.596 346.503 234.457 354.224 233.17Z" fill="#80298D"/>
<path d="M87.0823 208.978C87.3397 208.978 87.597 208.978 87.8544 208.978C91.7148 208.978 94.8032 206.404 97.1194 201.514C97.8915 199.713 98.6636 195.08 97.6342 190.705C96.3473 185.558 92.4869 181.955 87.8544 181.44C83.2219 180.668 79.3615 181.697 76.7879 184.271C73.6995 187.359 72.9274 191.992 72.9274 195.08C72.9274 203.573 78.332 208.72 86.825 208.72" fill="#80298D"/>
<path d="M220.396 198.426C221.168 198.426 222.197 197.911 222.969 197.654C227.344 195.852 230.433 191.735 231.462 186.073C231.977 183.499 231.462 177.837 228.631 173.462C225.286 168.057 219.881 165.226 214.219 165.998C208.042 166.77 203.667 169.601 201.608 174.234C200.064 177.837 199.807 182.212 201.094 187.102C203.925 196.882 211.131 201.257 220.396 198.683" fill="#80298D"/>
<path d="M228.712 0.257222C224.591 0.257222 220.728 0 216.607 0C144.492 0 73.6652 34.7228 29.3663 92.8514C27.5634 95.1663 26.7907 98.2528 27.0483 101.082C27.5634 103.911 28.8512 106.741 31.4267 108.541C33.7446 110.341 36.5777 111.113 39.6684 110.856C42.5014 110.341 45.3345 109.055 47.1374 106.483C87.3155 54.0133 151.446 22.3769 216.607 22.3769C220.212 22.3769 223.818 22.3769 227.424 22.6342C290.524 25.9778 352.337 59.929 388.909 111.37C390.97 114.2 394.318 116 397.923 116C401.529 116 402.559 115.228 404.362 113.942C409.256 110.341 410.543 103.397 406.938 98.51C365.987 40.8958 299.281 4.3725 228.454 0.514405L228.712 0.257222Z" fill="#F48120"/>
<path d="M352.348 110.161C339.98 96.2258 293.859 51.0645 220.941 49C219.137 49 217.333 49 215.787 49C143.127 49 95.975 92.6129 83.0919 106.29C81.0307 108.355 80 111.194 80 114.29C80 117.387 81.2883 119.968 83.3496 122.032C85.4109 124.097 88.2452 125.129 91.0794 125.129C93.9137 125.129 91.0794 125.129 91.3371 125.129C94.429 125.129 97.0056 123.839 99.0669 121.774C110.404 109.903 151.887 71.4516 215.272 71.4516C278.657 71.4516 218.622 71.4516 220.168 71.4516C284.325 73.2581 324.778 113 335.6 125.387C337.661 127.71 340.753 129 343.845 129C346.937 129 349.256 127.968 351.317 126.161C355.955 122.032 356.213 115.065 352.09 110.419L352.348 110.161Z" fill="#80298D"/>
<path d="M218.388 116.063C248.183 116.832 267.961 132.995 275.153 139.921C277.208 141.974 280.033 143 282.858 143C285.684 143 288.766 141.717 290.821 139.665C295.187 135.304 294.93 128.12 290.821 124.016C281.831 115.293 256.659 94.7696 219.159 94C218.388 94 217.618 94 216.847 94C179.347 94 153.918 113.497 144.671 121.963C140.048 126.068 139.791 133.251 143.901 137.613C148.011 142.23 155.202 142.487 159.569 138.382C167.018 131.712 187.052 116.319 216.847 116.319C246.642 116.319 217.875 116.319 218.645 116.319L218.388 116.063Z" fill="#F48120"/>
<path d="M491.655 281.811H473.125V286.186C473.125 289.532 472.868 293.135 471.838 297.253C471.066 300.341 469.779 303.944 467.72 307.547H465.404V320.93H471.581V312.18H489.339V320.93H495.515V307.547H491.655V281.811ZM484.964 307.547H473.382C474.669 304.974 475.956 301.885 476.728 299.054C477.5 296.223 477.757 292.62 478.015 289.532V286.701H484.964V307.547ZM515.59 281.039C513.016 281.039 509.928 281.811 507.354 284.642C507.354 283.613 507.354 282.326 506.839 281.039L500.663 282.068C500.92 283.355 501.177 285.672 501.177 289.789V325.305L507.611 323.761V314.753C507.611 313.724 507.611 311.922 507.611 310.636C510.442 312.952 513.273 313.209 514.818 313.209C518.678 313.209 521.252 311.665 522.796 310.121C525.369 307.805 527.171 303.43 527.171 296.738C527.171 290.047 525.112 285.929 523.053 283.87C521.509 282.326 519.193 281.039 515.59 281.039ZM517.391 306.261C516.362 307.29 515.332 307.547 514.045 307.547C511.472 307.547 509.413 306.261 507.869 304.716V289.789C509.156 288.502 511.472 286.701 514.56 286.701C517.649 286.701 516.876 286.958 517.906 287.988C519.707 289.789 519.965 293.135 519.965 296.995C519.965 300.856 519.965 303.687 517.391 306.261ZM551.62 281.811H558.826L547.502 314.496C545.958 319.129 544.157 321.187 543.385 321.96C541.326 324.018 539.267 324.791 536.179 325.305L534.12 320.93C536.951 320.158 538.495 319.129 539.267 318.356C540.039 317.584 541.326 315.783 542.355 312.18H540.296C539.267 307.805 538.237 305.488 537.723 303.43L530.517 282.068L537.208 281.039L542.87 299.569C543.385 301.113 544.157 304.202 544.414 306.518C545.186 303.687 545.958 300.599 546.73 298.282L551.878 281.811H551.62ZM581.217 298.282C582.246 299.312 583.276 301.113 583.276 303.43C583.276 305.746 582.246 308.577 580.445 310.121C578.386 311.922 575.298 313.209 571.18 313.209C567.062 313.209 564.231 312.18 562.944 311.408C561.657 310.636 560.885 309.864 560.113 309.349L562.944 304.974C563.974 305.746 565.003 306.518 566.033 307.033C567.577 307.805 569.121 308.062 570.408 308.062C571.695 308.062 573.753 307.547 574.525 306.775C575.298 306.003 575.812 304.716 575.812 303.43C575.812 302.143 575.298 300.856 574.525 300.341C573.239 299.054 571.18 299.054 569.893 299.054H566.547V293.907H570.15C571.18 293.907 572.981 293.907 574.011 292.62C574.783 291.848 575.04 291.076 575.04 290.047C575.04 289.017 575.04 288.245 574.011 287.473C572.981 286.701 571.694 286.186 570.15 286.186C568.606 286.186 566.805 286.701 566.29 286.958C565.26 287.216 564.231 287.988 563.459 288.502L560.885 284.385C562.172 283.613 563.716 282.583 565.003 282.068C567.319 281.296 569.378 281.039 571.437 281.039C573.496 281.039 577.356 281.554 579.93 283.87C580.959 284.899 582.246 286.701 582.246 289.532C582.246 292.363 581.474 293.135 580.187 294.422C579.673 294.937 578.643 295.709 577.356 296.223C578.901 296.481 580.187 297.253 581.217 298.282ZM601.548 293.135H597.173V281.039L590.482 282.326V312.437H602.063C605.666 312.437 609.012 311.922 611.071 309.606C612.1 308.319 613.387 306.26 613.387 302.915C613.387 299.569 613.13 298.282 610.813 296.223C607.982 293.392 603.865 293.135 601.291 293.135H601.548ZM605.409 306.261C604.122 307.547 602.321 307.547 601.034 307.547H597.173V297.768H600.776C602.063 297.768 603.865 297.768 605.152 299.054C606.181 300.084 606.438 301.885 606.438 302.657C606.438 303.429 606.438 304.974 605.152 306.261H605.409ZM619.821 284.385C618.792 285.414 617.505 287.216 617.505 290.304C617.505 293.392 618.277 294.422 619.306 295.451C620.336 296.481 621.88 297.51 623.939 297.51C622.909 297.768 622.137 298.282 621.365 299.054C620.593 299.826 620.078 300.599 619.821 301.628L618.792 304.459C618.534 305.488 618.277 306.26 617.505 306.775C617.247 306.775 616.475 307.547 615.189 307.805H614.159L615.189 312.695H617.505C618.792 312.437 621.365 312.18 623.167 310.636C624.196 309.606 624.711 308.062 624.968 306.775L625.74 303.687C625.74 302.915 626.255 301.628 627.027 300.856C628.057 299.826 629.086 299.826 630.116 299.826H632.947V311.922H639.638V281.296H628.314C625.483 281.296 621.88 281.554 619.564 283.87L619.821 284.385ZM633.461 286.701V295.709H629.601C627.799 295.709 626.513 295.194 625.483 294.422C624.454 293.392 624.196 292.106 624.196 291.076C624.196 290.047 624.196 288.76 625.483 287.988C626.77 286.958 628.571 286.958 629.344 286.958H633.204L633.461 286.701ZM683.647 296.223C684.934 295.709 685.963 294.937 686.735 294.164C688.022 292.878 688.537 291.334 688.537 289.532C688.537 287.73 688.279 285.929 686.478 284.127C684.162 281.811 680.816 281.811 678.5 281.811H665.889V312.437H679.529C684.419 312.437 686.735 310.378 687.25 309.864C688.279 308.834 689.824 307.033 689.824 303.43C689.824 299.826 689.309 299.569 687.765 298.025C687.25 297.51 685.963 296.481 683.904 295.966L683.647 296.223ZM672.323 286.186H676.955C678.242 286.186 679.786 286.186 680.816 287.216C681.845 287.988 681.845 289.275 681.845 290.304C681.845 291.334 681.845 292.363 680.816 293.135C679.786 294.164 677.985 294.422 676.698 294.422H672.323V286.444V286.186ZM681.588 306.775C680.558 307.805 678.757 308.062 677.213 308.062H672.323V298.797H677.213C678.5 298.797 680.044 298.797 681.073 299.826C682.36 300.856 682.617 302.657 682.617 303.687C682.617 304.716 682.617 306.003 681.331 306.775H681.588ZM714.273 304.974L717.361 309.091C714.53 311.922 711.699 313.209 707.581 313.209C699.346 313.209 694.713 307.29 694.713 297.51C694.713 286.444 701.405 281.039 708.096 281.039C714.788 281.039 713.758 281.811 716.589 284.385L713.243 288.76C711.442 287.216 709.898 286.444 708.096 286.444C706.295 286.444 704.236 287.473 703.206 289.532C702.177 291.334 701.919 294.164 701.919 298.025C701.919 301.885 702.692 304.974 703.978 306.261C705.008 307.29 706.295 308.062 708.096 308.062C709.898 308.062 712.214 307.033 714.273 304.974ZM734.604 281.039C730.744 281.039 727.656 282.326 725.339 285.157C722.766 288.245 721.479 291.848 721.479 296.995C721.479 306.775 726.884 312.952 735.634 312.952C744.384 312.952 743.355 311.665 746.701 308.834L744.127 304.716C741.811 306.775 739.237 307.805 736.406 307.805C730.487 307.805 728.942 303.429 728.942 299.054V298.54H747.215V297.253C747.215 290.047 745.928 286.444 743.355 283.87C740.781 281.554 737.95 280.782 734.862 280.782L734.604 281.039ZM728.942 293.907C728.942 289.017 731.001 285.929 734.862 285.929C738.722 285.929 740.266 289.017 740.266 293.907H728.942ZM772.179 286.701H760.341V312.437H753.649V281.811H772.694L771.922 286.701H772.179ZM798.173 281.811H779.643V286.186C779.643 289.532 779.385 293.135 778.356 297.253C777.584 300.341 776.297 303.944 774.496 307.547H772.179V320.93H778.356V312.18H796.114V320.93H802.291V307.547H798.43V281.811H798.173ZM791.739 307.547H780.158C781.444 304.974 782.731 301.885 783.503 299.054C784.275 296.223 784.533 292.62 784.79 289.532V286.701H791.739V307.547ZM829.571 302.4V293.65C829.571 289.017 829.571 287.473 829.314 286.186C828.027 282.841 824.681 281.039 820.049 281.039C815.416 281.039 811.556 282.326 807.181 285.157L810.011 290.047C810.011 290.047 814.644 286.444 819.019 286.444C823.394 286.444 823.137 288.245 823.137 291.848V293.392H821.078C811.298 293.392 805.894 296.995 805.894 303.944C805.894 310.893 808.982 312.952 815.931 312.952C822.88 312.952 821.85 312.18 824.424 309.349C825.196 311.15 826.74 312.695 828.542 313.467L831.887 309.349C829.571 307.805 829.056 306.518 829.314 302.4H829.571ZM822.88 305.231C821.593 307.29 819.534 308.319 817.475 308.319C815.416 308.319 813.357 306.518 813.357 303.687C813.357 300.856 815.416 297.768 822.107 297.768C828.799 297.768 823.394 297.768 823.394 297.768V304.974L822.88 305.231ZM870.749 304.974L873.837 309.091C871.006 311.922 868.175 313.209 864.057 313.209C855.822 313.209 851.189 307.29 851.189 297.51C851.189 287.73 857.881 281.039 864.572 281.039C871.264 281.039 870.234 281.811 873.065 284.385L869.719 288.76C867.918 287.216 866.374 286.444 864.572 286.444C862.771 286.444 860.712 287.473 859.682 289.532C858.653 291.334 858.395 294.164 858.395 298.025C858.395 301.885 859.168 304.974 860.454 306.261C861.484 307.29 862.771 308.062 864.572 308.062C866.374 308.062 868.69 307.033 870.749 304.974ZM889.022 281.811H912.699L911.927 286.701H903.948V312.437H897.257V286.701H889.022V281.811ZM926.596 281.039C918.618 281.039 913.214 287.216 913.214 296.995C913.214 306.775 918.361 312.952 926.596 312.952C934.832 312.952 940.236 306.775 940.236 296.995C940.236 287.216 935.347 280.782 926.596 280.782V281.039ZM926.854 308.319C922.993 308.319 920.677 305.746 920.677 296.738C920.677 287.73 922.479 286.186 926.596 286.186C930.714 286.186 932.773 288.76 932.773 297.51C932.773 306.26 930.714 308.577 926.596 308.577L926.854 308.319ZM961.083 281.811C958.767 281.811 956.708 282.326 954.906 283.613C953.619 284.642 952.59 285.672 951.818 286.958H951.56V285.157C951.56 283.355 952.59 279.495 956.965 277.436L964.943 274.09C965.973 273.833 967.002 273.318 968.546 272.546C969.833 272.031 970.863 271.517 971.892 270.745L969.576 265.34L967.259 266.627L957.737 270.745C955.678 271.774 953.105 272.803 951.046 274.862C949.244 276.664 948.215 278.465 947.443 281.039C946.156 285.414 945.898 290.047 945.898 293.65C945.898 299.054 945.898 304.716 949.502 308.834C952.075 311.922 955.421 313.209 959.281 313.209C963.142 313.209 967.259 311.15 969.318 308.834C971.12 306.775 972.921 303.172 972.921 297.253C972.921 291.334 970.605 287.216 969.576 285.672C968.032 283.613 965.201 281.554 960.825 281.554L961.083 281.811ZM964.171 305.746C962.884 307.805 961.34 308.319 959.539 308.319C957.737 308.319 956.193 307.805 954.906 305.746C953.877 303.944 953.362 300.341 953.362 297.51C953.362 294.679 953.619 291.334 954.906 289.275C956.193 287.216 957.737 286.701 959.539 286.701C961.34 286.701 962.884 287.216 964.171 289.275C965.458 291.334 965.715 295.194 965.715 297.51C965.715 299.826 965.458 303.43 964.171 305.746ZM991.966 281.039C983.988 281.039 978.583 287.216 978.583 296.995C978.583 306.775 983.731 312.952 991.966 312.952C1000.2 312.952 1005.61 306.775 1005.61 296.995C1005.61 287.216 1000.72 280.782 991.966 280.782V281.039ZM992.224 308.319C988.363 308.319 986.047 305.746 986.047 296.738C986.047 287.73 987.848 286.186 991.966 286.186C996.084 286.186 998.143 288.76 998.143 297.51C998.143 306.26 996.084 308.577 991.966 308.577L992.224 308.319ZM1014.1 272.031L1017.45 270.23C1017.7 270.745 1018.22 271.259 1018.73 271.774C1019.76 272.803 1021.31 273.833 1023.88 273.833C1026.45 273.833 1027.74 273.061 1028.77 271.774C1029.28 271.259 1029.8 270.487 1030.06 270.23L1033.4 272.031C1032.37 274.862 1030.57 276.407 1030.06 276.664C1028 278.208 1025.68 278.465 1023.88 278.465C1022.08 278.465 1019.76 278.208 1017.7 276.664C1017.19 276.407 1015.39 274.862 1014.36 272.031H1014.1ZM1036.23 281.039V312.437H1029.54V298.54C1029.54 295.451 1029.54 293.392 1029.8 290.561C1029.03 292.878 1027.74 295.451 1026.71 297.253L1018.22 312.18H1011.27V282.068L1017.96 280.782V296.738C1017.96 298.797 1017.96 301.628 1017.96 303.687C1018.99 300.599 1020.28 298.282 1021.31 296.481L1029.54 281.811L1036.49 280.524L1036.23 281.039Z" fill="#F69220"/>
<path fill-rule="evenodd" clip-rule="evenodd" d="M1044.21 133.571C1041.89 129.968 1036.23 128.424 1025.17 127.651C1014.1 126.879 971.635 122.504 942.553 129.196C937.92 130.225 937.663 135.372 938.692 137.689C943.068 148.498 963.142 140.777 980.642 141.549C980.128 143.865 978.841 147.468 978.326 149.527C978.326 149.527 978.326 149.785 978.326 150.042C976.267 168.315 976.267 191.735 976.782 213.61C976.782 213.61 976.782 213.61 976.782 213.868C976.267 221.846 975.495 229.567 974.98 235.743C973.694 252.472 994.283 248.611 994.025 240.891C994.025 229.309 995.055 208.463 996.599 188.389C998.143 169.344 999.687 151.329 1000.2 143.35C1013.33 139.233 1025.42 148.24 1037 144.895C1046.01 142.321 1046.01 135.63 1044.21 133.313V133.571Z" fill="#80298D"/>
<path fill-rule="evenodd" clip-rule="evenodd" d="M532.318 126.365C528.973 126.365 526.399 128.166 524.855 131.769C520.994 139.49 517.391 155.189 517.391 155.189C515.59 165.484 506.325 188.904 506.325 188.904C506.325 189.418 501.692 183.499 499.891 178.609C497.574 172.947 494.486 166.77 490.368 160.336C488.567 157.248 485.993 148.755 480.331 140.262C477.5 135.887 475.441 132.541 473.897 130.225C472.096 127.651 469.779 126.365 467.206 126.365C464.632 126.365 463.088 127.137 461.286 128.938C459.742 130.482 458.713 132.541 458.713 134.6C458.713 136.659 459.227 137.431 460 138.975C462.058 142.578 465.147 152.358 472.096 162.653C477.758 171.146 481.875 178.609 484.449 184.528C487.537 191.992 493.971 201.772 503.236 213.868C503.236 213.868 503.236 213.868 502.979 214.382C502.979 214.382 502.464 214.897 502.207 215.412C496.03 232.655 490.883 238.832 481.103 238.832C471.323 238.832 480.331 238.832 479.816 238.832C478.787 238.832 478.015 238.832 477.243 238.832C473.382 239.861 471.323 242.177 471.323 246.295C471.323 250.413 472.096 250.67 473.64 252.215C475.184 253.759 476.985 254.531 479.559 254.531C482.133 254.531 484.192 254.531 486.25 254.531C486.508 254.531 486.765 254.531 487.28 254.531C501.177 251.185 509.928 244.494 516.362 223.39C516.362 222.875 516.876 222.361 516.876 222.103C519.193 216.956 533.605 159.822 533.605 159.564C533.605 159.05 540.811 137.174 540.811 134.6C540.811 132.027 540.039 130.482 538.238 128.938C536.693 127.394 534.634 126.622 532.318 126.622V126.365Z" fill="#80298D"/>
<path fill-rule="evenodd" clip-rule="evenodd" d="M641.954 131.512C634.748 131.512 627.285 135.887 623.682 140.005C624.454 132.799 624.711 129.453 624.711 130.482C624.711 127.651 623.682 125.335 621.88 123.276C620.079 121.217 617.762 120.188 614.931 120.188C609.527 120.188 607.983 125.335 606.953 132.541C606.696 135.372 603.35 136.916 600.776 135.63C596.144 133.313 589.967 130.482 586.364 130.482C570.15 130.482 565.518 136.659 557.282 149.012C549.819 159.822 547.245 175.521 547.245 190.705C547.245 205.889 548.532 217.985 555.738 228.537C563.716 240.633 574.268 244.494 588.423 244.494C598.718 244.494 598.46 244.494 605.666 240.633C605.666 244.236 605.409 240.376 605.409 247.067C605.409 253.759 606.438 252.729 608.24 254.788C610.299 256.847 612.615 257.876 615.703 257.876C618.792 257.876 619.564 257.619 621.365 255.56C623.424 253.501 622.395 242.177 622.395 242.177C622.395 242.177 628.829 242.177 635.778 244.236C649.933 248.354 658.683 242.435 667.433 231.883C675.411 221.846 676.441 215.927 676.441 200.742C676.441 184.271 679.272 163.167 674.125 153.13C667.433 139.747 655.337 131.254 641.697 131.254L641.954 131.512ZM606.438 171.918C605.666 182.984 604.122 203.831 604.122 216.956C603.093 217.471 601.549 230.339 589.71 228.537C581.989 227.25 572.724 226.478 568.606 218.243C565.261 211.809 564.488 201.772 564.488 193.279C564.488 184.786 567.834 167.285 571.437 160.336C575.812 151.843 578.386 148.24 586.364 148.24C594.342 148.24 587.651 148.24 588.423 148.498C598.975 151.071 607.468 154.417 606.181 171.66L606.438 171.918ZM660.484 205.632C660.484 214.897 658.168 217.985 654.05 223.905C649.418 230.339 630.888 230.596 622.652 222.361C622.652 204.603 625.483 176.035 624.711 160.079C627.285 153.13 631.402 151.586 635.263 149.527C640.41 146.696 647.359 148.498 650.962 150.814C661.256 158.277 660.484 179.896 660.484 205.632Z" fill="#80298D"/>
<path fill-rule="evenodd" clip-rule="evenodd" d="M760.083 161.366C759.569 150.814 756.995 141.034 753.907 136.659C750.304 131.512 744.642 127.394 739.752 126.107C729.2 123.534 717.876 128.424 713.501 134.343C709.126 140.262 703.978 152.358 704.493 161.108C704.493 165.226 710.67 168.829 716.332 163.939C722.251 158.535 718.905 145.667 729.2 142.064C732.803 140.777 735.634 141.549 740.524 148.24C745.156 154.417 747.215 169.859 744.127 176.035C737.436 188.904 722.251 180.925 712.729 182.984C702.692 185.043 694.456 196.367 691.882 209.75C689.051 225.192 696 239.346 704.751 242.692C730.487 253.244 753.649 242.692 759.054 235.486C764.201 229.052 756.223 228.537 753.392 220.816C750.818 213.096 760.598 167.543 760.083 160.851V161.366ZM735.891 225.964C735.634 228.795 733.318 230.854 730.744 232.398C725.082 234.714 717.361 235.229 712.471 230.853C708.611 225.449 706.552 219.015 707.839 212.066C709.64 205.117 715.302 197.654 723.023 196.624C728.428 196.624 735.377 195.338 737.436 201.514C738.722 210.265 733.575 217.471 735.891 226.221V225.964Z" fill="#80298D"/>
<path fill-rule="evenodd" clip-rule="evenodd" d="M937.148 170.373C928.913 165.741 930.714 154.932 927.883 147.468C925.567 141.292 921.449 135.63 915.273 131.769C906.78 126.365 890.309 127.394 884.132 133.828C876.411 142.064 872.551 148.755 868.69 160.594C865.087 171.918 861.484 189.161 863.028 205.889C865.344 231.883 882.073 241.405 899.831 246.81C913.471 250.928 928.913 239.346 933.545 232.655C939.465 223.905 939.979 203.573 927.369 204.86C916.817 205.889 921.964 216.699 918.361 223.647C915.787 228.795 909.096 231.883 903.691 230.339C899.574 229.052 881.043 221.331 881.043 208.206C881.043 197.396 875.381 188.904 882.33 182.727C887.22 178.352 897 182.727 907.037 182.727C914.5 182.984 934.832 187.359 938.95 177.322C940.237 173.977 938.95 171.146 937.663 170.116L937.148 170.373ZM912.699 164.712C907.809 167.8 898.287 163.939 891.853 163.939C889.794 163.939 887.992 163.167 887.992 161.108C887.992 158.535 891.338 146.954 898.287 144.637C903.949 142.578 910.125 146.696 911.927 151.071C913.728 155.447 916.045 162.395 912.699 164.712Z" fill="#80298D"/>
<path fill-rule="evenodd" clip-rule="evenodd" d="M836.52 132.799C835.748 144.895 834.975 152.616 834.461 167.8C834.461 168.315 834.461 169.859 834.461 172.175C834.461 172.175 834.203 172.69 833.946 172.947C831.115 186.587 806.923 184.014 797.401 182.984C795.856 182.984 794.57 182.984 793.54 183.242C793.54 182.212 793.54 181.44 793.54 180.925C793.54 175.778 793.54 164.197 794.827 160.079C796.114 155.961 796.629 134.343 794.827 129.968C793.025 125.85 786.077 125.335 781.959 127.137C773.209 130.997 776.297 141.806 776.297 147.983C776.297 163.682 774.238 170.116 776.554 183.756C778.871 197.396 777.326 234.457 778.098 241.92C778.871 248.869 790.709 248.097 791.481 240.891C791.996 236.773 792.511 215.669 793.025 199.455C794.055 199.713 795.342 199.97 796.886 199.713C815.931 198.169 832.659 191.734 834.461 199.455C834.461 199.455 834.461 199.713 834.975 199.97V200.485C836.005 208.463 830.086 236.001 835.747 245.781C837.549 249.126 848.101 249.126 849.645 244.494C851.189 239.604 850.932 168.572 850.675 165.998C850.16 159.564 851.447 153.13 852.476 137.946C853.505 122.762 836.777 125.85 836.262 132.541L836.52 132.799Z" fill="#80298D"/>
</svg>
