<svg width="428" height="202" viewBox="0 0 428 202" fill="none" xmlns="http://www.w3.org/2000/svg">
<path d="M427.057 60.4489C425.77 58.39 422.939 57.8753 419.851 58.6474C416.763 59.4195 411.873 61.221 406.211 63.2799C400.806 65.3388 394.372 67.6551 388.71 69.1993C371.982 74.0891 356.025 75.1186 345.731 75.1186C335.436 75.1186 344.701 75.1186 344.444 75.1186C344.444 75.1186 330.547 67.3977 325.142 59.9342C318.193 50.4118 318.451 48.8676 315.362 42.4336C312.789 36.5143 309.958 32.9112 303.266 33.1686C296.575 33.1686 291.942 35.2275 286.538 36.2569C279.332 37.5437 273.412 38.3158 263.375 39.3453C249.992 40.6321 243.558 40.3747 234.808 41.4042C223.227 42.691 211.903 42.9483 204.954 42.4336C200.321 41.9189 195.432 41.1468 185.909 35.4849C176.644 30.0803 171.24 24.1609 162.489 14.3812C156.055 7.4324 151.937 3.82934 147.562 4.0867C143.187 4.0867 140.099 4.85882 136.238 11.0355C131.091 19.5284 126.459 27.5066 121.311 32.3965C112.818 40.6321 105.612 45.522 102.009 47.0661C82.9645 55.0444 68.2949 49.6397 53.1106 47.5808C42.3014 46.294 17.3373 39.86 10.3885 38.5732C-0.935399 36.2569 -0.42067 44.4925 0.351416 46.0367C3.43976 51.6987 10.3885 49.125 27.6318 52.9854C43.0735 56.3311 55.9415 61.7358 69.5817 62.7652C77.5599 63.2799 80.1336 81.5526 71.898 101.627C66.236 115.01 63.6624 147.695 58.0004 159.791C50.7943 174.718 56.7136 174.46 60.3167 174.975C63.9198 175.49 68.2949 176.519 71.898 178.321C74.4716 179.607 77.0452 181.152 81.4204 179.35C83.7366 178.321 86.0529 177.034 86.0529 174.975C86.0529 173.688 85.0234 173.431 83.7366 173.173C82.1924 172.916 76.0158 172.401 73.1848 170.085C72.4127 143.834 80.1336 127.106 87.0823 115.782C91.2001 115.267 96.6047 114.495 101.237 113.98C108.701 130.966 117.451 158.246 122.084 184.24C122.856 188.1 125.687 189.13 129.29 188.358C133.15 187.586 133.407 185.012 142.415 181.666C149.879 178.835 159.401 177.034 162.232 173.945C164.806 171.114 162.232 166.997 158.629 167.254C154.768 167.769 155.026 167.254 152.195 167.511C149.106 167.511 148.849 169.313 142.93 171.629C140.614 172.401 138.555 173.431 136.238 173.688C122.084 130.194 116.164 111.149 112.819 92.1045C110.76 80.5232 115.135 74.3464 113.591 66.883C112.818 62.7652 115.135 60.4489 117.451 58.1327C125.172 49.8971 133.15 40.6321 139.327 32.3965C145.761 24.1609 148.334 19.2711 148.334 19.2711C148.334 19.2711 152.967 24.4183 158.629 30.8523C164.548 37.5438 172.012 45.5219 179.733 51.4412C185.652 56.0738 190.284 57.8753 192.086 64.3093L192.858 72.0302C193.63 84.3835 194.402 92.1045 193.115 114.238C191.571 125.819 184.622 153.871 177.674 168.284C169.438 185.527 176.129 185.269 180.247 185.784C184.365 186.556 189.512 187.586 193.63 189.387C196.718 190.674 199.549 192.733 204.439 190.674C207.013 189.387 209.587 187.843 209.844 185.784C209.844 184.24 208.814 183.983 207.013 183.468C205.211 183.211 198.263 182.696 194.917 179.865C194.145 149.753 203.41 129.937 213.447 117.841C223.227 117.069 230.69 115.267 240.47 115.01C248.706 141.261 254.625 166.225 260.029 196.336C260.802 200.711 264.405 201.741 268.265 201.226C272.898 200.454 272.897 197.365 283.449 193.505C291.942 190.417 303.009 188.1 306.097 184.497C309.186 181.152 306.097 176.519 301.979 177.034C297.604 177.549 297.862 177.034 294.516 177.291C291.17 177.291 290.655 179.35 283.964 181.924C281.39 182.953 278.817 183.983 276.243 184.24C265.177 153.357 250.764 73.317 249.478 63.5373L248.448 58.1327C255.912 55.559 264.405 55.0443 279.589 51.956C292.2 49.3824 296.575 47.8382 302.751 46.0367C305.84 52.4708 308.928 58.1327 315.62 68.6845C320.767 76.4054 331.576 83.3541 331.833 91.8471C331.833 94.6781 331.833 97.509 332.091 100.34C332.091 108.061 333.892 116.039 332.605 127.878C331.576 134.054 329.517 141.518 327.458 148.981C325.657 155.158 324.112 160.82 322.054 165.453C319.48 171.115 318.708 174.718 319.737 176.776C320.767 178.321 322.568 178.578 323.855 178.835H324.37C326.943 179.35 330.547 180.122 333.635 181.409H334.407C335.694 182.438 336.981 182.953 338.782 182.953C340.584 182.953 340.841 182.953 342.128 182.181C343.929 181.409 346.246 180.122 346.246 178.063C346.246 176.262 344.701 176.004 343.672 175.747C343.672 175.747 343.157 175.747 342.643 175.747C340.841 175.747 337.495 174.975 335.694 173.688C335.179 156.187 339.554 141.775 348.562 130.709C350.878 130.709 352.937 130.194 354.739 129.937C358.856 129.422 362.459 128.907 366.835 128.65C372.496 146.408 376.357 163.394 380.475 185.784C380.989 188.872 383.563 190.417 387.166 189.902C388.71 189.645 389.74 188.872 391.027 188.1C392.313 187.071 394.115 185.784 398.233 184.24C400.034 183.468 402.093 182.953 404.152 182.438C408.785 180.894 413.16 179.607 414.704 177.806C415.733 176.519 415.991 174.975 415.476 173.431C414.704 171.887 413.16 170.857 411.101 171.114C409.042 171.114 408.527 171.114 407.755 171.114C407.24 171.114 406.726 171.114 405.696 171.114C404.152 171.114 403.38 171.629 402.35 172.401C401.321 172.916 400.292 173.688 397.975 174.46H396.946C395.659 175.232 394.372 175.747 393.343 176.004C385.622 154.129 374.555 97.7664 375.327 83.8688C385.879 82.0673 400.292 76.4054 405.696 74.3465C411.873 72.2876 415.733 71.2581 418.822 70.7434C421.395 70.2287 423.197 69.714 424.741 68.9419C426.285 68.1698 427.315 66.6256 427.829 65.0815C428.087 63.5373 427.829 62.2505 427.057 60.9637" fill="#80298D"/>
<path d="M354.224 68.1698C359.371 67.3977 360.915 62.5078 361.687 60.7063C362.202 58.9047 362.459 54.787 360.915 51.1839C359.371 47.3235 355.768 44.4925 351.136 44.2351C341.87 44.2351 339.04 51.4413 339.812 57.3606C340.841 65.5962 346.503 69.4566 354.224 68.1698Z" fill="#80298D"/>
<path d="M87.0823 43.9778C87.3397 43.9778 87.597 43.9778 87.8544 43.9778C91.7148 43.9778 94.8032 41.4042 97.1194 36.5143C97.8915 34.7127 98.6636 30.0802 97.6342 25.7051C96.3473 20.5579 92.4869 16.9548 87.8544 16.4401C83.2219 15.668 79.3615 16.6974 76.7879 19.271C73.6995 22.3594 72.9274 26.9919 72.9274 30.0802C72.9274 38.5732 78.332 43.7204 86.825 43.7204" fill="#80298D"/>
<path d="M220.396 33.426C221.168 33.426 222.197 32.9112 222.969 32.6539C227.344 30.8523 230.433 26.7345 231.462 21.0726C231.977 18.499 231.462 12.837 228.631 8.46187C225.286 3.05728 219.881 0.226273 214.219 0.998359C208.042 1.77044 203.667 4.60142 201.608 9.23393C200.064 12.837 199.807 17.2121 201.094 22.102C203.925 31.8818 211.131 36.2569 220.396 33.6833" fill="#80298D"/>
</svg>
