<svg width="588" height="138" viewBox="0 0 588 138" fill="none" xmlns="http://www.w3.org/2000/svg">
<path fill-rule="evenodd" clip-rule="evenodd" d="M586.211 13.5708C583.895 9.96769 578.233 8.42352 567.166 7.65143C556.099 6.87935 513.635 2.50417 484.553 9.19558C479.92 10.225 479.663 15.3723 480.692 17.6885C485.068 28.4977 505.142 20.7769 522.642 21.5489C522.128 23.8652 520.841 27.4683 520.326 29.5272C520.326 29.5272 520.326 29.7845 520.326 30.0419C518.267 48.3146 518.267 71.7345 518.782 93.6103C518.782 93.6103 518.782 93.6102 518.782 93.8676C518.267 101.846 517.495 109.567 516.98 115.743C515.694 132.472 536.283 128.611 536.025 120.891C536.025 109.309 537.055 88.463 538.599 68.3888C540.143 49.344 541.687 31.3287 542.202 23.3505C555.327 19.2327 567.423 28.2404 579.005 24.8947C588.012 22.321 588.012 15.6296 586.211 13.3134V13.5708Z" fill="#80298D"/>
<path fill-rule="evenodd" clip-rule="evenodd" d="M74.3182 6.36464C70.9725 6.36464 68.3989 8.16615 66.8547 11.7692C62.9943 19.4901 59.3913 35.1891 59.3913 35.1891C57.5897 45.4836 48.3247 68.9036 48.3247 68.9036C48.3247 69.4183 43.6922 63.499 41.8906 58.6091C39.5744 52.9471 36.4861 46.7704 32.3683 40.3364C30.5667 37.248 27.9931 28.7551 22.3311 20.2622C19.5002 15.887 17.4413 12.5413 15.8971 10.2251C14.0956 7.65145 11.7793 6.36464 9.20571 6.36464C6.6321 6.36464 5.08792 7.13672 3.28639 8.93826C1.74222 10.4824 0.712769 12.5413 0.712769 14.6002C0.712769 16.6591 1.22749 17.4312 1.99958 18.9753C4.05847 22.5784 7.1468 32.3582 14.0956 42.6526C19.7575 51.1456 23.8753 58.6091 26.4489 64.5284C29.5373 71.9919 35.9713 81.7716 45.2364 93.8676C45.2364 93.8676 45.2363 93.8676 44.979 94.3823C44.979 94.3823 44.4642 94.8971 44.2069 95.4118C38.0302 112.655 32.883 118.832 23.1032 118.832C13.3235 118.832 22.3311 118.832 21.8164 118.832C20.787 118.832 20.0149 118.832 19.2428 118.832C15.3824 119.861 13.3235 122.177 13.3235 126.295C13.3235 130.413 14.0956 130.67 15.6398 132.215C17.1839 133.759 18.9854 134.531 21.559 134.531C24.1327 134.531 26.1916 134.531 28.2505 134.531C28.5078 134.531 28.7652 134.531 29.2799 134.531C43.1774 131.185 51.9277 124.494 58.3618 103.39C58.3618 102.875 58.8765 102.361 58.8765 102.103C61.1928 96.956 75.605 39.8217 75.605 39.5643C75.605 39.0496 82.8112 17.1738 82.8112 14.6002C82.8112 12.0266 82.0391 10.4824 80.2375 8.93826C78.6934 7.39409 76.6345 6.62198 74.3182 6.62198V6.36464Z" fill="#80298D"/>
<path fill-rule="evenodd" clip-rule="evenodd" d="M183.954 11.5119C176.748 11.5119 169.285 15.887 165.682 20.0048C166.454 12.7987 166.711 9.45295 166.711 10.4824C166.711 7.65142 165.682 5.33519 163.88 3.2763C162.079 1.21741 159.762 0.187927 156.931 0.187927C151.527 0.187927 149.983 5.33517 148.953 12.5413C148.696 15.3723 145.35 16.9164 142.776 15.6296C138.144 13.3134 131.967 10.4824 128.364 10.4824C112.15 10.4824 107.518 16.6591 99.2823 29.0125C91.8188 39.8217 89.2452 55.5207 89.2452 70.7051C89.2452 85.8894 90.532 97.9854 97.7381 108.537C105.716 120.633 116.268 124.494 130.423 124.494C140.718 124.494 140.46 124.494 147.666 120.633C147.666 124.236 147.409 120.376 147.409 127.067C147.409 133.759 148.438 132.729 150.24 134.788C152.299 136.847 154.615 137.876 157.703 137.876C160.792 137.876 161.564 137.619 163.365 135.56C165.424 133.501 164.395 122.177 164.395 122.177C164.395 122.177 170.829 122.177 177.778 124.236C191.933 128.354 200.683 122.435 209.433 111.883C217.411 101.846 218.441 95.9265 218.441 80.7422C218.441 64.271 221.272 43.1673 216.125 33.1302C209.433 19.7474 197.337 11.2545 183.697 11.2545L183.954 11.5119ZM148.438 51.9177C147.666 62.9842 146.122 83.8305 146.122 96.956C145.093 97.4707 143.549 110.339 131.71 108.537C123.989 107.25 114.724 106.478 110.606 98.2428C107.261 91.8087 106.488 81.7716 106.488 73.2787C106.488 64.7857 109.834 47.2851 113.437 40.3364C117.812 31.8434 120.386 28.2404 128.364 28.2404C136.342 28.2404 129.651 28.2404 130.423 28.4977C140.975 31.0713 149.468 34.417 148.181 51.6603L148.438 51.9177ZM202.484 85.6321C202.484 94.8971 200.168 97.9854 196.05 103.905C191.418 110.339 172.888 110.596 164.652 102.361C164.652 84.6026 167.483 56.0354 166.711 40.079C169.285 33.1302 173.402 31.5861 177.263 29.5272C182.41 26.6962 189.359 28.4977 192.962 30.814C203.256 38.2775 202.484 59.8959 202.484 85.6321Z" fill="#80298D"/>
<path fill-rule="evenodd" clip-rule="evenodd" d="M302.083 41.3658C301.569 30.814 298.995 21.0343 295.907 16.6591C292.304 11.5119 286.642 7.39407 281.752 6.10727C271.2 3.53365 259.876 8.42351 255.501 14.3428C251.126 20.2622 245.978 32.3582 246.493 41.1085C246.493 45.2263 252.67 48.8293 258.332 43.9394C264.251 38.5348 260.905 25.6668 271.2 22.0637C274.803 20.7769 277.634 21.549 282.524 28.2404C287.156 34.4171 289.215 49.8588 286.127 56.0355C279.436 68.9036 264.251 60.9253 254.729 62.9842C244.692 65.0431 236.456 76.3671 233.882 89.7499C231.051 105.192 238 119.346 246.751 122.692C272.487 133.244 295.649 122.692 301.054 115.486C306.201 109.052 298.223 108.537 295.392 100.816C292.818 93.0955 302.598 47.5425 302.083 40.8511V41.3658ZM277.891 105.964C277.634 108.795 275.318 110.854 272.744 112.398C267.082 114.714 259.361 115.229 254.471 110.853C250.611 105.449 248.552 99.0149 249.839 92.0661C251.64 85.1173 257.302 77.6539 265.023 76.6244C270.428 76.6244 277.377 75.3376 279.436 81.5143C280.722 90.2646 275.575 97.4707 277.891 106.221V105.964Z" fill="#80298D"/>
<path fill-rule="evenodd" clip-rule="evenodd" d="M479.148 50.3735C470.913 45.741 472.714 34.9318 469.883 27.4683C467.567 21.2916 463.449 15.6296 457.273 11.7692C448.78 6.36463 432.309 7.39408 426.132 13.8281C418.411 22.0637 414.551 28.7551 410.69 40.5938C407.087 51.9177 403.484 69.1609 405.028 85.8895C407.344 111.883 424.073 121.405 441.831 126.81C455.471 130.928 470.913 119.346 475.545 112.655C481.465 103.905 481.979 83.5731 469.369 84.8599C458.817 85.8894 463.964 96.6986 460.361 103.647C457.787 108.795 451.096 111.883 445.691 110.339C441.574 109.052 423.043 101.331 423.043 88.2057C423.043 77.3965 417.381 68.9035 424.33 62.7269C429.22 58.3517 439 62.7269 449.037 62.7269C456.5 62.9842 476.832 67.3594 480.95 57.3223C482.237 53.9766 480.95 51.1456 479.663 50.1161L479.148 50.3735ZM454.699 44.7115C449.809 47.7999 440.287 43.9394 433.853 43.9394C431.794 43.9394 429.992 43.1674 429.992 41.1085C429.992 38.5349 433.338 26.9536 440.287 24.6373C445.949 22.5784 452.125 26.6962 453.927 31.0714C455.728 35.4465 458.045 42.3953 454.699 44.7115Z" fill="#80298D"/>
<path fill-rule="evenodd" clip-rule="evenodd" d="M378.52 12.7987C377.748 24.8947 376.975 32.6155 376.461 47.7998C376.461 48.3146 376.461 49.8588 376.461 52.175C376.461 52.175 376.203 52.6897 375.946 52.9471C373.115 66.5872 348.923 64.0136 339.401 62.9842C337.856 62.9842 336.57 62.9842 335.54 63.2415C335.54 62.2121 335.54 61.44 335.54 60.9253C335.54 55.7781 335.54 44.1968 336.827 40.079C338.114 35.9612 338.629 14.3428 336.827 9.96766C335.025 5.84988 328.077 5.33518 323.959 7.13671C315.209 10.9971 318.297 21.8063 318.297 27.983C318.297 43.6821 316.238 50.1161 318.554 63.7563C320.871 77.3965 319.326 114.457 320.098 121.92C320.871 128.869 332.709 128.097 333.481 120.891C333.996 116.773 334.511 95.6691 335.025 79.4553C336.055 79.7127 337.342 79.9701 338.886 79.7127C357.931 78.1685 374.659 71.7345 376.461 79.4553C376.461 79.4553 376.461 79.7127 376.975 79.97V80.4848C378.005 88.463 372.086 116.001 377.747 125.78C379.549 129.126 390.101 129.126 391.645 124.494C393.189 119.604 392.932 48.5719 392.675 45.9983C392.16 39.5643 393.447 33.1302 394.476 17.9459C395.505 2.76155 378.777 5.84988 378.262 12.5413L378.52 12.7987Z" fill="#80298D"/>
</svg>
