<svg width="134" height="134" viewBox="0 0 134 134" fill="none" xmlns="http://www.w3.org/2000/svg">
<path fill-rule="evenodd" clip-rule="evenodd" d="M52.8947 3.52632C52.8947 1.57979 54.4745 0 56.4211 0H77.5789C79.5255 0 81.1053 1.57979 81.1053 3.52632V16.0095C85.3368 17.1732 89.3498 18.8517 93.0806 20.9745L101.911 12.1446C103.286 10.7694 105.522 10.7694 106.897 12.1446L121.855 27.1033C122.518 27.7662 122.892 28.6619 122.892 29.5999C122.892 30.5309 122.518 31.4265 121.855 32.0895L113.025 40.9194C115.148 44.6502 116.827 48.6632 117.991 52.8947H130.474C132.42 52.8947 134 54.4745 134 56.4211V77.5789C134 79.5255 132.42 81.1053 130.474 81.1053H117.991C116.827 85.3368 115.148 89.3498 113.025 93.0806L121.855 101.911C123.231 103.286 123.231 105.521 121.855 106.897L106.897 121.855C105.522 123.231 103.286 123.231 101.911 121.855L93.0806 113.025C89.3498 115.148 85.3368 116.827 81.1053 117.991V130.474C81.1053 132.42 79.5255 134 77.5789 134H56.4211C54.4745 134 52.8947 132.42 52.8947 130.474V117.991C48.6632 116.827 44.6502 115.148 40.9194 113.025L32.0894 121.855C31.4264 122.518 30.5308 122.892 29.5998 122.892C28.6618 122.892 27.7661 122.518 27.1032 121.855L12.1445 106.897C10.7693 105.521 10.7693 103.286 12.1445 101.911L20.9745 93.0806C18.8517 89.3498 17.1731 85.3368 16.0094 81.1053H3.52632C1.57979 81.1053 0 79.5255 0 77.5789V56.4211C0 54.4745 1.57979 52.8947 3.52632 52.8947H16.0094C17.1731 48.6632 18.8517 44.6502 20.9745 40.9194L12.1445 32.0895C10.7693 30.7142 10.7693 28.4785 12.1445 27.1033L27.1032 12.1446C28.4784 10.7694 30.7141 10.7694 32.0894 12.1446L40.9194 20.9745C44.6502 18.8517 48.6632 17.1732 52.8947 16.0095V3.52632ZM59.9474 7.05263V18.767C59.9474 20.4244 58.7907 21.8561 57.1756 22.2157C51.7945 23.3865 46.773 25.5023 42.2805 28.3868C40.8841 29.2825 39.0575 29.0851 37.8868 27.9073L29.5998 19.6204L19.6205 29.5999L27.9073 37.8867C29.0851 39.0574 29.2825 40.8841 28.3868 42.2805C25.5023 46.773 23.3865 51.7945 22.2157 57.1756C21.8561 58.7907 20.4245 59.9474 18.7671 59.9474H7.05263V74.0526H18.7671C20.4245 74.0526 21.8561 75.2093 22.2157 76.8244C23.3865 82.2055 25.5023 87.227 28.3868 91.7195C29.2825 93.1159 29.0851 94.9426 27.9073 96.1133L19.6205 104.4L29.5998 114.38L37.8868 106.093C39.0575 104.915 40.8841 104.718 42.2805 105.613C46.773 108.498 51.7945 110.614 57.1756 111.784C58.7907 112.144 59.9474 113.576 59.9474 115.233V126.947H74.0526V115.233C74.0526 113.576 75.2093 112.144 76.8244 111.784C82.2055 110.614 87.227 108.498 91.7195 105.613C93.1159 104.718 94.9425 104.915 96.1132 106.093L104.4 114.38L114.379 104.4L106.093 96.1133C104.915 94.9426 104.718 93.1159 105.613 91.7195C108.498 87.227 110.614 82.2055 111.784 76.8244C112.144 75.2093 113.575 74.0526 115.233 74.0526H126.947V59.9474H115.233C113.575 59.9474 112.144 58.7907 111.784 57.1756C110.614 51.7945 108.498 46.773 105.613 42.2805C104.718 40.8841 104.915 39.0574 106.093 37.8867L114.379 29.5999L104.4 19.6204L96.1132 27.9073C94.9425 29.0851 93.1159 29.2825 91.7195 28.3868C87.227 25.5023 82.2055 23.3865 76.8244 22.2157C75.2093 21.8561 74.0526 20.4244 74.0526 18.767V7.05263H59.9474Z" fill="#80298D"/>
<path fill-rule="evenodd" clip-rule="evenodd" d="M67 49.1429C57.1357 49.1429 49.1429 57.1357 49.1429 67C49.1429 76.8643 57.1357 84.8571 67 84.8571C76.8643 84.8571 84.8571 76.8643 84.8571 67C84.8571 57.1357 76.8643 49.1429 67 49.1429ZM42 67C42 53.1929 53.1929 42 67 42C80.8071 42 92 53.1929 92 67C92 80.8071 80.8071 92 67 92C53.1929 92 42 80.8071 42 67Z" fill="#80298D"/>
</svg>
