<svg width="28" height="29" viewBox="0 0 28 29" fill="none" xmlns="http://www.w3.org/2000/svg">
<rect y="0.5" width="28" height="28" rx="14" fill="#F4F6FB"/>
<path d="M20 15.5H15V20.5C15 20.7652 14.8946 21.0196 14.7071 21.2071C14.5196 21.3946 14.2652 21.5 14 21.5C13.7348 21.5 13.4804 21.3946 13.2929 21.2071C13.1054 21.0196 13 20.7652 13 20.5V15.5H8C7.73478 15.5 7.48043 15.3946 7.29289 15.2071C7.10536 15.0196 7 14.7652 7 14.5C7 14.2348 7.10536 13.9804 7.29289 13.7929C7.48043 13.6054 7.73478 13.5 8 13.5H13V8.5C13 8.23478 13.1054 7.98043 13.2929 7.79289C13.4804 7.60536 13.7348 7.5 14 7.5C14.2652 7.5 14.5196 7.60536 14.7071 7.79289C14.8946 7.98043 15 8.23478 15 8.5V13.5H20C20.2652 13.5 20.5196 13.6054 20.7071 13.7929C20.8946 13.9804 21 14.2348 21 14.5C21 14.7652 20.8946 15.0196 20.7071 15.2071C20.5196 15.3946 20.2652 15.5 20 15.5Z" fill="url(#paint0_linear_65_858)"/>
<defs>
<linearGradient id="paint0_linear_65_858" x1="14" y1="7.5" x2="14" y2="21.5" gradientUnits="userSpaceOnUse">
<stop stop-color="#B532FC"/>
<stop offset="1" stop-color="#A944DF"/>
</linearGradient>
</defs>
</svg>
