<svg width="23" height="19" viewBox="0 0 23 19" fill="none" xmlns="http://www.w3.org/2000/svg">
<path d="M12.3158 14.8053L11.2128 15.8731C10.639 16.4304 10.0651 16.9864 9.50176 17.5477C9.33855 17.7078 9.17007 17.825 8.93447 17.7143C8.69887 17.6037 8.70677 17.4044 8.72124 17.1935C8.83181 15.6843 8.93447 14.1738 9.05293 12.6632C9.07578 12.5346 9.14215 12.4175 9.24115 12.3312C11.1251 10.6071 13.0117 8.88695 14.9009 7.17069L18.4112 3.97256C18.4734 3.92786 18.5276 3.8733 18.5718 3.81109C18.6008 3.7538 18.6152 3.64441 18.5823 3.61186C18.5195 3.56715 18.4418 3.54804 18.3652 3.55847C18.2997 3.57837 18.2391 3.61164 18.1875 3.65614C14.1335 6.10682 10.0805 8.55924 6.02827 11.0134C5.96019 11.0609 5.88116 11.0909 5.79838 11.1004C5.71561 11.11 5.63174 11.0988 5.55443 11.0681C3.92408 10.5125 2.29197 9.96167 0.658108 9.41563C0.209278 9.26458 0 9.038 0 8.67599C0 8.31399 0.186901 8.09002 0.613355 7.92855L17.3293 1.5935C18.6517 1.09173 19.9753 0.591696 21.3003 0.0933995C21.5107 0.00434747 21.7429 -0.0217741 21.9682 0.0182609C22.1934 0.0582959 22.4019 0.162735 22.5678 0.318676C22.7418 0.459191 22.8715 0.64609 22.9415 0.857251C23.0115 1.06841 23.0188 1.29499 22.9627 1.51016C22.8477 2.03103 22.7337 2.55189 22.6205 3.07276C21.5114 8.03663 20.404 13.0018 19.2984 17.9683C19.276 18.0672 19.2576 18.1675 19.2286 18.2652C19.0259 18.9722 18.2441 19.2262 17.632 18.773C16.7475 18.1219 15.8722 17.4565 14.9996 16.7989L12.5449 14.9616C12.4711 14.9108 12.4014 14.8652 12.3158 14.8053Z" fill="#691875"/>
</svg>
