<svg width="59" height="59" viewBox="0 0 59 59" fill="none" xmlns="http://www.w3.org/2000/svg">
<rect x="0.75" y="0.75" width="57.5" height="57.5" rx="28.75" stroke="black" stroke-opacity="0.5" stroke-width="1.5"/>
<g clip-path="url(#clip0_821_136)">
<path fill-rule="evenodd" clip-rule="evenodd" d="M38.7315 35.4756C38.37 36.4648 36.933 37.2831 35.787 37.5224C35.0025 37.6834 33.9795 37.8108 30.5325 36.43C26.661 34.8795 21.285 29.3564 21.285 25.681C21.285 23.8099 22.401 21.6312 24.3525 21.6312C25.2915 21.6312 25.4985 21.6489 25.8075 22.3654C26.169 23.2096 27.051 25.2894 27.156 25.5026C27.5895 26.3772 26.715 26.8892 26.0805 27.6507C25.878 27.8798 25.6485 28.1277 25.905 28.5541C26.16 28.9718 27.042 30.3614 28.338 31.4768C30.012 32.9185 31.3695 33.3788 31.8555 33.5746C32.217 33.7196 32.649 33.6858 32.913 33.4132C33.2475 33.0636 33.663 32.4837 34.086 31.9122C34.3845 31.5032 34.764 31.4521 35.1615 31.5971C35.43 31.687 38.8425 33.219 38.9865 33.4641C39.093 33.6425 39.093 34.4864 38.7315 35.4756ZM30.003 15H29.9955C21.726 15 15 21.5038 15 29.5C15 32.6707 16.0575 35.6122 17.856 37.9982L15.987 43.3862L21.7515 41.6055C24.123 43.1227 26.9535 44 30.003 44C38.2725 44 45 37.4962 45 29.5C45 21.5038 38.2725 15 30.003 15Z" fill="#2A2A2B" fill-opacity="0.5"/>
</g>
<defs>
<clipPath id="clip0_821_136">
<rect width="30" height="29" fill="white" transform="translate(15 15)"/>
</clipPath>
</defs>
</svg>
