<svg width="23" height="22" viewBox="0 0 23 22" fill="none" xmlns="http://www.w3.org/2000/svg">
<path fill-rule="evenodd" clip-rule="evenodd" d="M19.55 3.1625C17.3938 1.1 14.5188 0 11.5 0C5.175 0 0 4.95 0 11C0 12.925 0.575009 14.85 1.58126 16.5L0 22L6.03752 20.4875C7.76252 21.3125 9.63125 21.8625 11.5 21.8625C17.825 21.8625 23 16.9125 23 10.8625C23 7.975 21.7063 5.225 19.55 3.1625ZM11.5 20.075C9.775 20.075 8.05001 19.6625 6.61251 18.8375L6.32499 18.7L2.73124 19.6625L3.73751 16.3625L3.44999 15.95C2.44374 14.4375 2.01249 12.7875 2.01249 11.1375C2.01249 6.1875 6.325 2.0625 11.5 2.0625C14.0875 2.0625 16.3875 3.025 18.2563 4.675C20.125 6.4625 20.9875 8.6625 20.9875 11.1375C20.9875 15.95 16.8188 20.075 11.5 20.075ZM16.675 13.2C16.3875 13.0625 14.95 12.375 14.6625 12.375C14.375 12.2375 14.2312 12.2375 14.0875 12.5125C13.9437 12.7875 13.3688 13.3375 13.225 13.6125C13.0813 13.75 12.9375 13.75 12.65 13.75C12.3625 13.6125 11.5 13.3375 10.35 12.375C9.48752 11.6875 8.91251 10.725 8.76876 10.45C8.62501 10.175 8.76877 10.0375 8.91252 9.9C9.05627 9.7625 9.2 9.625 9.34375 9.4875C9.4875 9.35 9.48752 9.2125 9.63127 9.075C9.77502 8.9375 9.63127 8.8 9.63127 8.6625C9.63127 8.525 9.05626 7.15 8.76876 6.6C8.62501 6.1875 8.33752 6.1875 8.19377 6.1875C8.05002 6.1875 7.90623 6.1875 7.61873 6.1875C7.47498 6.1875 7.18748 6.1875 6.89998 6.4625C6.61248 6.7375 5.89376 7.425 5.89376 8.8C5.89376 10.175 6.89999 11.4125 7.04374 11.6875C7.18749 11.825 9.05623 14.7125 11.9312 15.8125C14.375 16.775 14.8063 16.5 15.3813 16.5C15.9563 16.5 17.1063 15.8125 17.25 15.2625C17.5375 14.575 17.5375 14.025 17.3938 14.025C17.25 13.3375 16.9625 13.3375 16.675 13.2Z" fill="#691875"/>
</svg>
